# xmcd
#
# Track frame offsets: 
#        150
#        13977
#        22010
#        33675
#        50682
#        66337
#        84204
#        91740
#        131015
#        141935
#        173720
#        196032
#        205782
#        216307
#        243980
#        270262
#        284020
#        292415
#        302407
#
# Disc length: 4248 seconds
#
# Revision: 0
# Processed by: cddbd v1.5.1PL0 Copyright (c) Steve Scherf et al.
# Submitted via: ExactAudioCopy v0.95a5
#
DISCID=1f109613
DTITLE=Dr. John - Dr. John Teaches New Orleans Piano (Vol. 1)
DYEAR=1997
DGENRE=Blues
TTITLE0=Texas Boogie
TTITLE1=Texas Boogie - Broken Down
TTITLE2=Albert Ammons Boogie
TTITLE3=Boogie Bass Lines
TTITLE4=Cow Cow Boogie
TTITLE5=Professor Longhair
TTITLE6=Frankie and Johnny
TTITLE7=Boogie Turnarounds and Rhythms
TTITLE8=12-Bar Blues - C.C.Rider
TTITLE9=Turnarounds
TTITLE10=How Long
TTITLE11=New Orleans 8-Bar - Blues
TTITLE12=Basic 8-Bar Blues
TTITLE13=Professor Longhair Style
TTITLE14=Big Chief
TTITLE15=Down by the Riverside (Mardi Gras Indian Influence)
TTITLE16=Whirlaway (Alan Toussaint)
TTITLE17=Set-Ups and Turnarounds
TTITLE18=Dr. John's Turnaround Tune
EXTD=
EXTT0=
EXTT1=
EXTT2=
EXTT3=
EXTT4=
EXTT5=
EXTT6=
EXTT7=
EXTT8=
EXTT9=
EXTT10=
EXTT11=
EXTT12=
EXTT13=
EXTT14=
EXTT15=
EXTT16=
EXTT17=
EXTT18=
PLAYORDER=
